PathFileType	4	(X/Y/Z)	F:\MotionCapture\20160217\3\Generated_files\2_Test04-Dynamic.trc
DataRate	CameraRate	NumFrames	NumMarkers	Units	OrigDataRate	OrigDataStartFrame	OrigNumFrames
120.00	120.00	       4	39	mm	120.00	637	       849
Frame#	Time	Top.Head			Front.Head			Rear.Head			R.Shoulder			R.Offset			R.Elbow			R.Wrist			L.Shoulder			L.Elbow			L.Wrist			R.ASIS			L.ASIS			V.Sacral			R.Thigh			R.Knee			R.Shank			R.Ankle			R.Heel			R.Toe			L.Thigh			L.Knee			L.Shank			L.Ankle			L.Heel			L.Toe			R1			R2			R3			R4			R5			R6			R7			L1			L2			L3			L4			L5			L6			L7			V_Mid_ASIS			V_Pelvis_Origin			V_R.Hip_JC			V_L.Hip_JC			V_R.Knee_JC			V_L.Knee_JC			V_R.Ankle_JC			V_L.Ankle_JC			V_Mid_Hip			V_Mid_Shoulder			V_R.Hand			V_L.Hand			V_R.Toe_Offset_Static			V_L.Toe_Offset_Static			V_R.Toe_Offset			V_L.Toe_Offset			
		X1	Y1	Z1	X2	Y2	Z2	X3	Y3	Z3	X4	Y4	Z4	X5	Y5	Z5	X6	Y6	Z6	X7	Y7	Z7	X8	Y8	Z8	X9	Y9	Z9	X10	Y10	Z10	X11	Y11	Z11	X12	Y12	Z12	X13	Y13	Z13	X14	Y14	Z14	X15	Y15	Z15	X16	Y16	Z16	X17	Y17	Z17	X18	Y18	Z18	X19	Y19	Z19	X20	Y20	Z20	X21	Y21	Z21	X22	Y22	Z22	X23	Y23	Z23	X24	Y24	Z24	X25	Y25	Z25	X26	Y26	Z26	X27	Y27	Z27	X28	Y28	Z28	X29	Y29	Z29	X30	Y30	Z30	X31	Y31	Z31	X32	Y32	Z32	X33	Y33	Z33	X34	Y34	Z34	X35	Y35	Z35	X36	Y36	Z36	X37	Y37	Z37	X38	Y38	Z38	X39	Y39	Z39	

637	5.300	-1693.36230	160.43681	1725.82629	-1817.30591	152.45224	1662.76331	-1597.21436	157.55661	1639.43433	-1683.87634	349.33380	1413.97839	-1561.34399	78.60414	1266.44702	-1656.74866	462.86160	1097.81287	-1791.27588	471.52780	870.71698	-1710.53564	-59.02448	1418.91016	-1680.98181	-168.28052	1102.52124	-1757.42468	-182.39221	856.65546	-1760.16199	296.93741	943.18591	-1797.56555	12.72697	954.95966	-1554.47998	119.01241	933.94977	-1827.65747	308.62009	566.86151	-1724.31738	347.67969	463.36359	-1590.20886	245.83755	287.87714	-1409.81128	272.01407	231.74509	-1379.68750	190.73807	259.54703	-1458.28528	280.05920	89.38691	-1873.69385	68.64456	639.97803	-1816.96704	13.18611	466.73273	-1823.87891	95.31976	327.60889	-1757.22900	33.78356	60.72684	-1689.83020	86.61163	43.20566	-1898.02783	51.74955	40.00639	-1489.22888	278.64899	53.89674	-1478.08276	249.77617	84.09982	-1458.32837	199.54509	169.14369	-1412.44189	175.39560	223.18326	-1377.23267	239.69585	239.28477	-1398.05469	281.45047	171.17386	-1420.97778	305.26904	114.10105	-1942.62207	81.21785	34.75668	-1906.91284	91.72362	44.03872	-1808.66357	127.13486	50.71323	-1723.56384	121.20762	44.34503	-1720.40417	49.44759	40.01878	-1794.18762	26.73284	32.09251	-1856.95154	16.66698	37.06115	
638	5.308	-1704.59204	160.56607	1727.81738	-1828.54236	152.47046	1664.54053	-1609.09167	157.40837	1640.79700	-1694.26636	348.98813	1415.75061	-1572.60107	78.30200	1268.29846	-1664.02673	461.93021	1099.43250	-1794.14783	471.14734	869.84418	-1722.50891	-59.25808	1421.39819	-1698.68445	-168.07561	1104.14441	-1781.29858	-180.77884	860.57587	-1770.94592	295.84177	946.24835	-1807.45496	12.02312	956.46045	-1567.06079	118.35744	936.48834	-1845.61096	308.36172	571.89252	-1745.13269	346.40033	466.45770	-1611.18042	245.73270	287.43005	-1435.18823	270.51596	226.47813	-1403.96997	188.95227	253.79062	-1490.43042	278.25763	87.76081	-1879.24829	68.09489	639.00891	-1819.27698	12.99070	466.75534	-1824.97656	94.61915	327.39169	-1757.20215	33.53791	60.83405	-1689.87292	86.55877	43.30522	-1898.03064	51.71144	39.96781	-1522.84265	276.96725	54.16888	-1510.46533	248.23087	83.59245	-1486.33289	197.82098	166.93073	-1438.23633	173.78674	218.77203	-1402.63623	238.18300	233.72478	-1426.01331	279.98941	166.17810	-1452.19067	304.06290	110.91889	-1942.65601	81.15054	34.71049	-1906.90271	91.68362	44.06908	-1808.67590	127.04321	50.75206	-1723.70728	121.18033	44.56571	-1720.35547	49.36040	40.03365	-1794.17444	26.68262	32.07668	-1856.90283	16.57033	36.96136	
639	5.317	-1716.00037	160.94275	1729.58850	-1839.70422	152.66953	1666.07275	-1620.63477	157.94792	1642.50293	-1705.16870	348.59305	1417.10388	-1583.01636	77.05478	1271.16528	-1671.16199	460.57373	1101.44006	-1796.95984	470.50189	869.06830	-1734.17859	-59.02279	1424.08411	-1715.91858	-167.92934	1105.94910	-1804.57739	-178.31989	864.29480	-1781.81482	294.91998	948.98029	-1817.44995	11.23357	958.01947	-1575.81226	119.24269	939.22711	-1863.46863	308.32339	577.02863	-1764.87024	346.52670	469.82315	-1638.56738	245.50691	287.04404	-1461.44995	268.98361	220.99059	-1428.82849	187.75259	247.26991	-1523.99341	276.83411	86.99583	-1884.75940	67.24704	637.84723	-1821.42725	12.87346	466.44940	-1825.92297	94.73697	327.34164	-1757.17529	33.40955	61.00000	-1689.79065	86.57326	43.42759	-1897.97742	51.68432	39.95792	-1557.45300	275.76077	54.01108	-1543.30334	246.53329	82.58780	-1515.00073	196.32689	164.04990	-1464.78650	172.07259	213.80228	-1428.24622	236.94122	227.70338	-1455.41077	278.79517	160.96669	-1483.67102	302.21802	106.99104	-1942.73694	81.07378	34.69907	-1906.88049	91.63277	44.08253	-1808.70166	126.99841	50.82303	-1723.67627	121.14050	44.71260	-1719.95764	48.97997	40.15495	-1794.17297	26.67476	32.07046	-1856.86499	16.49150	36.92675	
640	5.325	-1727.45203	161.24330	1730.76038	-1850.91357	152.96428	1667.48108	-1630.84924	158.18958	1644.21924	-1713.38831	348.69180	1419.19739	-1594.34766	75.64651	1273.79639	-1678.31262	459.12619	1102.66736	-1799.70166	469.80750	868.20667	-1746.14905	-58.68232	1426.48621	-1733.66113	-167.69469	1107.77551	-1828.18506	-176.25780	868.45172	-1792.63916	294.25381	951.46222	-1827.10608	10.67400	959.16168	-1586.28125	120.36119	942.14526	-1880.92297	308.24429	581.93744	-1785.04968	346.09818	472.75821	-1664.93054	244.85368	286.25104	-1488.19482	267.60962	214.32643	-1453.93933	186.15886	239.73376	-1556.59912	275.68893	84.33832	-1890.34583	66.46630	636.60400	-1823.78662	12.54072	466.44968	-1826.90833	94.80029	327.24075	-1756.91602	33.51448	61.03295	-1689.76282	86.50455	43.67836	-1897.97339	51.65733	39.96315	-1592.01099	274.29187	53.38312	-1576.49023	245.37714	80.93012	-1543.89124	194.77707	160.50700	-1491.24268	170.42757	208.32785	-1454.79187	235.74559	220.34116	-1484.53784	277.46796	155.11884	-1516.29700	301.43970	103.52540	-1942.78638	80.99294	34.70530	-1906.88806	91.59273	44.08764	-1808.50024	126.92732	50.58646	-1723.67273	121.14606	44.83709	-1720.10156	49.20483	40.27387	-1794.14465	26.67669	32.06509	-1856.82227	16.45146	36.89250	
